<?xml version="1.0" encoding="utf-8"?>
<!-- Generator: Adobe Illustrator 19.1.1, SVG Export Plug-In . SVG Version: 6.00 Build 0)  -->
<svg version="1.1" id="Layer_1" xmlns="http://www.w3.org/2000/svg" xmlns:xlink="http://www.w3.org/1999/xlink" x="0px" y="0px"
	 viewBox="-272 273.3 38.8 38.8" style="enable-background:new -272 273.3 38.8 38.8;" xml:space="preserve">
<style type="text/css">
	.st0{fill:#153D7C;}
	.st1{fill:#FFFFFF;}
</style>
<g>
	<g>
		<path class="st0" d="M-252.6,311.2c-10.2,0-18.6-8.3-18.6-18.6s8.3-18.6,18.6-18.6s18.6,8.3,18.6,18.6S-242.4,311.2-252.6,311.2z"
			/>
		<path class="st1" d="M-252.6,274.9c9.8,0,17.8,8,17.8,17.8c0,9.8-8,17.8-17.8,17.8c-9.8,0-17.8-8-17.8-17.8
			C-270.4,282.9-262.4,274.9-252.6,274.9 M-252.6,273.4c-10.7,0-19.3,8.6-19.3,19.3c0,10.7,8.6,19.3,19.3,19.3
			c10.7,0,19.3-8.6,19.3-19.3C-233.3,282-242,273.4-252.6,273.4L-252.6,273.4z"/>
	</g>
	<path class="st1" d="M-248.3,282.3h-8.5v8.5h8.5V282.3z"/>
	<path class="st1" d="M-248.4,294.6h-8.5v8.5h8.5V294.6z"/>
</g>
</svg>
